<svg width="80" height="40" viewBox="0 0 80 40" fill="none" xmlns="http://www.w3.org/2000/svg">
<circle cx="60" cy="18" r="18" fill="#FFA501"/>
<line x1="42" y1="18.5" y2="18.5" stroke="black"/>
<path d="M75.2645 34.1457L74.6145 34.5793L76.1449 36.875H58.8547L60.6777 34.1406H70.6023V33.3594H60.4688C60.4045 33.3594 60.3412 33.3752 60.2845 33.4055C60.2278 33.4359 60.1794 33.4797 60.1438 33.5332L57.8 37.0488C57.7573 37.1131 57.7345 37.1885 57.7344 37.2656V38.4375C57.7344 38.6447 57.8167 38.8434 57.9632 38.9899C58.1097 39.1364 58.3084 39.2188 58.5156 39.2188H76.4844C76.6916 39.2188 76.8903 39.1364 77.0368 38.9899C77.1833 38.8434 77.2656 38.6447 77.2656 38.4375V37.2656C77.2655 37.1885 77.2427 37.1131 77.2 37.0488L75.2645 34.1457ZM58.5156 38.4375V37.6562H76.4844V38.4375H58.5156Z" fill="black"/>
<path d="M75.3125 15.7812H59.6875C59.377 15.7822 59.0795 15.9059 58.8599 16.1255C58.6403 16.3451 58.5166 16.6426 58.5156 16.9531V27.1094C58.5166 27.4199 58.6403 27.7174 58.8599 27.937C59.0795 28.1566 59.377 28.2803 59.6875 28.2812H65.1562V29.8438H63.5938C63.4901 29.8438 63.3908 29.8849 63.3175 29.9582C63.2443 30.0314 63.2031 30.1308 63.2031 30.2344V31.7969C63.2031 31.9005 63.2443 31.9998 63.3175 32.0731C63.3908 32.1463 63.4901 32.1875 63.5938 32.1875H71.4062C71.5099 32.1875 71.6092 32.1463 71.6825 32.0731C71.7557 31.9998 71.7969 31.9005 71.7969 31.7969V30.2344C71.7969 30.1308 71.7557 30.0314 71.6825 29.9582C71.6092 29.8849 71.5099 29.8438 71.4062 29.8438H69.8438V28.2812H75.3125C75.623 28.2803 75.9205 28.1566 76.1401 27.937C76.3597 27.7174 76.4834 27.4199 76.4844 27.1094V16.9531C76.4834 16.6426 76.3597 16.3451 76.1401 16.1255C75.9205 15.9059 75.623 15.7822 75.3125 15.7812ZM71.0156 30.625V31.4062H63.9844V30.625H71.0156ZM65.9375 29.8438V28.2812H69.0625V29.8438H65.9375ZM75.7031 27.1094C75.7031 27.213 75.662 27.3123 75.5887 27.3856C75.5155 27.4588 75.4161 27.5 75.3125 27.5H59.6875C59.5839 27.5 59.4845 27.4588 59.4113 27.3856C59.338 27.3123 59.2969 27.213 59.2969 27.1094V25.9375H75.7031V27.1094ZM75.7031 25.1562H59.2969V16.9531C59.2969 16.8495 59.338 16.7502 59.4113 16.6769C59.4845 16.6037 59.5839 16.5625 59.6875 16.5625H75.3125C75.4161 16.5625 75.5155 16.6037 75.5887 16.6769C75.662 16.7502 75.7031 16.8495 75.7031 16.9531V25.1562Z" fill="black"/>
<path d="M73.3594 26.3281H74.1406V27.1094H73.3594V26.3281Z" fill="black"/>
<path d="M63.9844 24.375H65.5469C65.6505 24.375 65.7498 24.3338 65.8231 24.2606C65.8963 24.1873 65.9375 24.088 65.9375 23.9844V23.5938H69.0625V23.9844C69.0625 24.088 69.1037 24.1873 69.1769 24.2606C69.2502 24.3338 69.3495 24.375 69.4531 24.375H71.0156C71.1192 24.375 71.2186 24.3338 71.2918 24.2606C71.3651 24.1873 71.4062 24.088 71.4062 23.9844V22.4219C71.4062 22.3183 71.3651 22.2189 71.2918 22.1457C71.2186 22.0724 71.1192 22.0312 71.0156 22.0312H70.625V19.6875H71.0156C71.1192 19.6875 71.2186 19.6463 71.2918 19.5731C71.3651 19.4998 71.4062 19.4005 71.4062 19.2969V17.7344C71.4062 17.6308 71.3651 17.5314 71.2918 17.4582C71.2186 17.3849 71.1192 17.3438 71.0156 17.3438H69.4531C69.3495 17.3438 69.2502 17.3849 69.1769 17.4582C69.1037 17.5314 69.0625 17.6308 69.0625 17.7344V18.125H65.9375V17.7344C65.9375 17.6308 65.8963 17.5314 65.8231 17.4582C65.7498 17.3849 65.6505 17.3438 65.5469 17.3438H63.9844C63.8808 17.3438 63.7814 17.3849 63.7082 17.4582C63.6349 17.5314 63.5938 17.6308 63.5938 17.7344V19.2969C63.5938 19.4005 63.6349 19.4998 63.7082 19.5731C63.7814 19.6463 63.8808 19.6875 63.9844 19.6875H64.375V22.0312H63.9844C63.8808 22.0312 63.7814 22.0724 63.7082 22.1457C63.6349 22.2189 63.5938 22.3183 63.5938 22.4219V23.9844C63.5938 24.088 63.6349 24.1873 63.7082 24.2606C63.7814 24.3338 63.8808 24.375 63.9844 24.375ZM70.625 23.5938H69.8438V22.8125H70.625V23.5938ZM69.8438 18.125H70.625V18.9062H69.8438V18.125ZM64.375 18.125H65.1562V18.9062H64.375V18.125ZM65.1562 19.6875H65.5469C65.6505 19.6875 65.7498 19.6463 65.8231 19.5731C65.8963 19.4998 65.9375 19.4005 65.9375 19.2969V18.9062H69.0625V19.2969C69.0625 19.4005 69.1037 19.4998 69.1769 19.5731C69.2502 19.6463 69.3495 19.6875 69.4531 19.6875H69.8438V22.0312H69.4531C69.3495 22.0312 69.2502 22.0724 69.1769 22.1457C69.1037 22.2189 69.0625 22.3183 69.0625 22.4219V22.8125H65.9375V22.4219C65.9375 22.3183 65.8963 22.2189 65.8231 22.1457C65.7498 22.0724 65.6505 22.0312 65.5469 22.0312H65.1562V19.6875ZM64.375 22.8125H65.1562V23.5938H64.375V22.8125Z" fill="black"/>
<path d="M63.9844 35.3125H69.4531V36.0938H63.9844V35.3125Z" fill="black"/>
<path d="M78.3867 29.3906L77.2813 28.2852C77.2449 28.2488 77.2016 28.22 77.154 28.2006C77.1064 28.1811 77.0553 28.1714 77.0039 28.1719C76.9531 28.1714 76.9026 28.1812 76.8556 28.2006C76.8086 28.2201 76.7661 28.2489 76.7305 28.2852L71.4805 33.5352C71.4377 33.5779 71.4055 33.6301 71.3867 33.6875L71.1094 34.5156C71.0871 34.5843 71.084 34.6577 71.1005 34.728C71.1171 34.7982 71.1526 34.8626 71.2031 34.9141L70.6523 35.4688L71.2031 36.0195L71.7578 35.4688C71.7936 35.5048 71.8363 35.5333 71.8832 35.5528C71.9301 35.5722 71.9804 35.5822 72.0312 35.582C72.0736 35.5816 72.1157 35.575 72.1562 35.5625L72.9844 35.2852C73.0418 35.2664 73.094 35.2342 73.1367 35.1914L78.3867 29.9414C78.4595 29.8682 78.5003 29.7692 78.5003 29.666C78.5003 29.5628 78.4595 29.4638 78.3867 29.3906ZM72.6523 34.5742L72.1406 34.7422L71.9258 34.5313L72.0977 34.0195L75.8984 30.2188L76.4531 30.7695L72.6523 34.5742ZM77.0039 30.2188L76.4531 29.668L77.0039 29.1133L77.5586 29.668L77.0039 30.2188Z" fill="black"/>
</svg>
