<svg width="84" height="39" viewBox="0 0 84 39" fill="none" xmlns="http://www.w3.org/2000/svg">
<circle cx="60" cy="18" r="18" fill="#FFA501"/>
<line x1="42" y1="18.5" y2="18.5" stroke="black"/>
<g clip-path="url(#clip0_141374_7)">
<path d="M81.5 17.75H70.25V18.5833H81.5V17.75Z" fill="black"/>
<path d="M77.3333 19.4166H70.25V20.25H77.3333V19.4166Z" fill="black"/>
<path d="M77.3333 21.0834H70.25V21.9167H77.3333V21.0834Z" fill="black"/>
<path d="M81.5 16.0834H73.5833V16.9167H81.5V16.0834Z" fill="black"/>
<path d="M72.75 16.0834H71.9167V16.9167H72.75V16.0834Z" fill="black"/>
<path d="M71.9166 30.6666H71.0833V31.5H71.9166V30.6666Z" fill="black"/>
<path d="M65.9612 16.7946L65.3721 16.2054L64.5387 17.0388C64.3761 17.2015 64.3761 17.4652 64.5387 17.6279L65.3721 18.4613L65.9612 17.8721L65.4225 17.3334L65.9612 16.7946Z" fill="black"/>
<path d="M69.2946 17.0388L68.4612 16.2054L67.8721 16.7946L68.4108 17.3334L67.8721 17.8721L68.4612 18.4613L69.2946 17.6279C69.4572 17.4652 69.4572 17.2015 69.2946 17.0388Z" fill="black"/>
<path d="M66.9384 15.9511L66.1042 18.451L66.8944 18.7147L67.7285 16.2147L66.9384 15.9511Z" fill="black"/>
<path d="M80.6667 26.9167V23.5833H79.8334V26.9167H79V22.75H78.1667V26.9167H77.3334V24.8333H76.5V26.9167H75.6667V24.4167H74.8334V26.9167H74V25.25H73.1667V26.9167H72.3334V27.75H81.5V26.9167H80.6667Z" fill="black"/>
<path d="M81.0834 14H61.9167C60.5365 14.0014 59.418 15.1198 59.4167 16.5V24.6775V24.6812V29.4167V30.6667C59.418 32.0468 60.5365 33.1653 61.9167 33.1667H67.0759L65.4092 36.5H63.1667C62.4763 36.5 61.9167 37.0596 61.9167 37.75C61.9167 38.4404 62.4763 39 63.1667 39H79.8334C80.5237 39 81.0834 38.4404 81.0834 37.75C81.0834 37.0596 80.5237 36.5 79.8334 36.5H77.5909L75.9242 33.1667H81.0834C82.4635 33.1653 83.582 32.0468 83.5834 30.6667V16.5C83.582 15.1198 82.4635 14.0014 81.0834 14ZM60.25 19.8625L61.1971 20.99C61.2763 21.0843 61.3931 21.1387 61.5163 21.1387H62.7917C62.9148 21.1387 63.0317 21.0843 63.1109 20.99L64.0584 19.8625L64.9934 20.1662L65.0967 21.6342C65.1052 21.7569 65.1676 21.8696 65.2671 21.9421L66.2992 22.6921C66.399 22.7642 66.5255 22.7887 66.645 22.7592L68.0754 22.4038L68.6538 23.1992L67.8742 24.4492C67.8096 24.554 67.7947 24.6819 67.8334 24.7987L68.2279 26.0117C68.2659 26.1286 68.3536 26.2229 68.4675 26.2692L69.8334 26.8229V27.8062L68.4667 28.36C68.3525 28.406 68.2647 28.5006 68.2271 28.6179L68.1021 29H65.7017C66.6354 27.045 65.8075 24.7032 63.8525 23.7694C62.7042 23.221 61.3612 23.2636 60.25 23.8837V19.8625ZM60.25 24.875C61.5977 23.8236 63.5426 24.0638 64.594 25.4116C65.4057 26.4521 65.4684 27.8929 64.75 29H60.25V24.875ZM79.8334 37.3333C80.0635 37.3333 80.25 37.5199 80.25 37.75C80.25 37.9801 80.0635 38.1667 79.8334 38.1667H63.1667C62.9366 38.1667 62.75 37.9801 62.75 37.75C62.75 37.5199 62.9366 37.3333 63.1667 37.3333H79.8334ZM76.6592 36.5H66.3409L68.0075 33.1667H74.9925L76.6592 36.5ZM82.75 30.6667C82.75 31.5871 82.0038 32.3333 81.0834 32.3333H61.9167C60.9962 32.3333 60.25 31.5871 60.25 30.6667V29.8333H64.9675H64.9713H82.75V30.6667ZM82.75 29H69.1063L70.4067 28.4729C70.5638 28.4092 70.6666 28.2566 70.6667 28.0871V26.5417C70.6667 26.372 70.5639 26.2192 70.4067 26.1554L68.9584 25.5696L68.6842 24.7258L69.51 23.4008C69.5996 23.2569 69.593 23.073 69.4934 22.9358L68.585 21.6858C68.4853 21.5485 68.3123 21.4854 68.1475 21.5262L66.6325 21.9012L65.9167 21.3812L65.8071 19.8271C65.7952 19.6577 65.6816 19.5124 65.52 19.46L64.0513 18.9825C63.8897 18.931 63.713 18.9818 63.6034 19.1112L62.6004 20.305H61.7117L60.7084 19.1112C60.5987 18.9817 60.4217 18.9308 60.26 18.9825L60.25 18.9862V16.5C60.25 15.5795 60.9962 14.8333 61.9167 14.8333H81.0834C82.0038 14.8333 82.75 15.5795 82.75 16.5V29Z" fill="black"/>
</g>
<defs>
<clipPath id="clip0_141374_7">
<rect width="25" height="25" fill="white" transform="translate(59 14)"/>
</clipPath>
</defs>
</svg>
