<svg width="90" height="358" viewBox="0 0 90 358" fill="none" xmlns="http://www.w3.org/2000/svg">
<circle cx="68" cy="84" r="18" fill="#FFA501"/>
<line x1="50" y1="84.5" x2="8" y2="84.5" stroke="black"/>
<path d="M84.7169 96.333L83.2497 95.9022L80.0575 93.8172V93.3394C80.9817 92.6423 81.6164 91.5767 81.7343 90.3553C82.1978 90.2807 82.553 89.8779 82.553 89.3937V88.08C82.553 88.0749 82.5524 88.0699 82.5522 88.0649V86.4007C82.7369 86.2685 82.854 86.0531 82.854 85.8115V84.2885L85.057 83.9133C85.4191 83.8516 85.6794 83.5641 85.705 83.1977C85.7305 82.8314 85.5126 82.5105 85.1626 82.3992L77.736 80.037C77.5811 79.9877 77.4174 79.9877 77.2625 80.0369L69.8358 82.3992C69.4858 82.5105 69.2679 82.8314 69.2934 83.1977C69.3096 83.4304 69.4208 83.6311 69.5925 83.7626V85.7541H69.5744C69.1561 85.7541 68.8159 86.0943 68.8159 86.5126V87.5011L68.3263 90.3748C68.2417 90.8718 68.6245 91.3267 69.1299 91.3267H70.7875C71.2918 91.3267 71.6759 90.8729 71.5911 90.3747L71.1015 87.5011V86.5126C71.1015 86.0943 70.7613 85.7541 70.3431 85.7541H70.3249V83.9786L72.1459 84.2887V85.8115C72.1459 86.0521 72.2626 86.2671 72.4464 86.3995L72.4471 88.0801V89.3937C72.4471 89.8779 72.8022 90.2807 73.2657 90.3553C73.3836 91.576 74.0176 92.6411 74.941 93.3383V93.8183L71.7495 95.9029L70.2834 96.3332C68.7146 96.7937 67.6069 98.2339 67.6069 99.9082V101C67.6069 101.202 67.7708 101.366 67.9731 101.366C68.1754 101.366 68.3393 101.202 68.3393 101V99.9082C68.3393 98.5886 69.2235 97.4075 70.4897 97.0359L71.8557 96.635L77.313 99.8778C77.4238 99.9436 77.5704 99.9471 77.6872 99.8778L83.1448 96.6348L84.5107 97.0358C85.7767 97.4074 86.6609 98.5885 86.6609 99.9079V103.445C86.6609 103.899 86.2918 104.268 85.8381 104.268H84.224V102.689C84.224 102.487 84.0601 102.323 83.8578 102.323C83.6556 102.323 83.4916 102.487 83.4916 102.689V104.268H71.5068V102.689C71.5068 102.487 71.3429 102.323 71.1406 102.323C70.9383 102.323 70.7744 102.487 70.7744 102.689V104.268H69.162C68.7083 104.268 68.3392 103.899 68.3392 103.445V102.711C68.3392 102.509 68.1753 102.345 67.973 102.345C67.7707 102.345 67.6068 102.509 67.6068 102.711V103.445C67.6068 104.302 68.3044 105 69.1619 105H85.838C86.6956 105 87.3932 104.302 87.3932 103.445V99.9079C87.3932 98.2731 86.3232 96.8046 84.7169 96.333ZM70.7875 90.5943H69.1299C69.0787 90.5943 69.0396 90.5485 69.0483 90.4977L69.4912 87.8983H70.4262L70.8691 90.4977C70.8777 90.5484 70.839 90.5943 70.7875 90.5943ZM70.3691 86.5126V87.1659H69.5482V86.5126C69.5482 86.4982 69.5599 86.4865 69.5743 86.4865H70.343C70.3574 86.4864 70.3691 86.4982 70.3691 86.5126ZM76.1903 98.2213L76.336 98.4453L72.5973 96.2237L74.9704 94.6737C75.078 95.9364 75.4942 97.1515 76.1903 98.2213ZM76.1877 96.6404C77.0497 96.7629 77.9498 96.763 78.8123 96.6404C78.6456 97.0505 78.4402 97.4462 78.1958 97.8219L77.5 98.8914L76.8041 97.8219C76.5598 97.4462 76.3544 97.0505 76.1877 96.6404ZM78.8097 98.2213C79.5058 97.1515 79.922 95.9364 80.0295 94.6737L82.4026 96.2237L78.664 98.4453L78.8097 98.2213ZM80.9519 86.5371H81.8198V87.7137H81.389C81.1479 87.7137 80.9518 87.5176 80.9518 87.2766V86.5371H80.9519ZM70.0578 83.0971L77.4846 80.7348C77.4941 80.7318 77.5043 80.7318 77.514 80.7349L84.9408 83.0971C84.9561 83.102 84.9771 83.1087 84.9745 83.1468C84.9718 83.1849 84.95 83.1885 84.9341 83.1913L82.4787 83.6095L81.5568 83.4955C81.3562 83.4706 81.1733 83.6133 81.1484 83.814C81.1236 84.0147 81.2663 84.1975 81.4669 84.2223L82.1217 84.3033V85.8047L72.8783 85.8044V84.3033L76.6677 83.8344C77.2197 83.7662 77.7792 83.7662 78.3308 83.8344L79.765 84.0118C79.9657 84.0366 80.1486 83.894 80.1734 83.6933C80.1983 83.4926 80.0557 83.3098 79.855 83.2849L78.4207 83.1075C77.8096 83.0319 77.1894 83.0319 76.5778 83.1075L72.5205 83.6096L70.0643 83.1913C70.0484 83.1885 70.0267 83.1849 70.024 83.1468C70.0213 83.1087 70.0424 83.102 70.0578 83.0971ZM73.1792 87.7137L73.1788 86.5371H74.0481V87.2766C74.0481 87.5176 73.852 87.7138 73.6109 87.7138H73.1792V87.7137ZM73.9852 90.1671C73.9664 89.8689 73.7185 89.6353 73.421 89.6353C73.2878 89.6353 73.1794 89.5269 73.1794 89.3937V88.4462H73.6109C74.2558 88.4462 74.7805 87.9215 74.7805 87.2766V86.5371H80.2194V87.2766C80.2194 87.9215 80.7441 88.4462 81.389 88.4462H81.8206V89.3937C81.8206 89.5269 81.7122 89.6353 81.5789 89.6353C81.2814 89.6353 81.0335 89.8689 81.0147 90.1671C80.898 92.0162 79.3542 93.4647 77.4999 93.4647C75.6457 93.4647 74.1019 92.0162 73.9852 90.1671ZM77.5 94.197C78.1513 94.197 78.7704 94.0481 79.3251 93.7833V94.0154C79.3251 94.6415 79.2406 95.2591 79.078 95.8548C78.0828 96.0446 76.9576 96.0523 75.922 95.8548C75.7594 95.2592 75.6749 94.6416 75.6749 94.0154C75.6749 94.0076 75.6738 94.0001 75.6733 93.9924C75.6732 93.9909 75.6734 93.9894 75.6733 93.9879V93.7826C76.2284 94.0478 76.848 94.197 77.5 94.197Z" fill="black"/>
<circle cx="68" cy="258" r="18" fill="#FFA501"/>
<line x1="50" y1="258.5" x2="8" y2="258.5" stroke="black"/>
<path d="M67.9297 270.954L66.0651 270.543C65.5186 271.645 65 272.884 65 274.311C65 275.71 65.4976 276.934 66.0651 278.078L72.373 276.687V279.431L74.5703 278.333L76.7676 279.431V276.688L83.0263 278.079C83.5686 276.985 84.0918 275.743 84.0918 274.311C84.0918 274.064 84.0735 273.818 84.0428 273.578H90V256H67.9297V270.954ZM66.9009 276.394C66.7104 275.89 66.4648 275.09 66.4648 274.311C66.4648 273.531 66.7104 272.731 66.9009 272.227L72.373 273.434V275.187L66.9009 276.394ZM75.3027 277.061L74.5703 276.695L73.8379 277.061V273.578H75.3027V277.061ZM82.1913 276.393L76.7676 275.188V273.433L82.1913 272.228C82.3817 272.732 82.627 273.532 82.627 274.31C82.627 275.089 82.3817 275.889 82.1913 276.393ZM88.5352 257.465V272.113H83.7038C83.4637 271.379 83.2701 271.032 83.0263 270.542L75.9548 272.113H73.1854L69.3945 271.277V257.465H88.5352Z" fill="black"/>
<path d="M73.8379 258.93H84.0918V260.395H73.8379V258.93Z" fill="black"/>
<path d="M70.8594 264.789H87.0703V266.254H70.8594V264.789Z" fill="black"/>
<path d="M73.8379 267.719H84.0918V269.184H73.8379V267.719Z" fill="black"/>
<path d="M75.3027 261.859H76.7676V263.324H75.3027V261.859Z" fill="black"/>
<path d="M78.2324 261.859H79.6973V263.324H78.2324V261.859Z" fill="black"/>
<path d="M81.1621 261.859H82.627V263.324H81.1621V261.859Z" fill="black"/>
<circle cx="7.5" cy="7.5" r="7.5" fill="#FFA501"/>
<line x1="7.5" y1="15" x2="7.5" y2="358" stroke="black"/>
</svg>
