<svg width="24" height="338" viewBox="0 0 24 338" fill="none" xmlns="http://www.w3.org/2000/svg">
<path d="M3 79.9995C3 85.5245 7.36167 89.9995 12.7411 89.9995C17.0457 89.9995 20.6962 87.1345 21.9832 83.162C22.0749 82.662 21.7734 82.4787 21.5148 82.4787C21.2835 82.4787 20.6706 82.487 19.8585 82.4912C20.4459 85.2728 18.5517 85.8595 18.5517 85.8595C17.4274 86.3145 17.1267 86.972 17.1267 86.972C16.5228 87.8778 16.5352 86.902 16.5352 86.902C16.603 85.8978 17.5389 85.3703 17.5389 85.3703C19.0283 84.4787 18.5979 83.0295 18.3493 82.4578C17.719 82.3678 17.2903 82.1103 17.0466 81.8245C16.8029 84.0453 15.9652 86.3795 12.233 86.3795C11.1699 86.3795 10.3008 85.992 9.61933 85.3503C9.37316 85.4628 8.3827 85.8003 7.04116 85.2628C7.04116 85.2628 6.78012 84.4253 8.03988 82.5128C7.82345 81.7128 7.71606 80.8628 7.7111 80.0128C7.71606 79.1628 7.82345 78.3128 8.03988 77.5128C6.78012 75.6128 7.04116 74.7753 7.04116 74.7753C8.3827 74.2378 9.37316 74.5753 9.61933 74.6753C10.3008 74.0378 11.1699 73.6503 12.233 73.6503C15.9752 73.6503 16.7987 75.9878 17.0383 78.2128C17.3307 77.8628 17.928 77.5378 18.8408 77.5378C20.1444 77.5378 21.1918 77.5503 21.5082 77.5503C21.7635 77.5503 22.0683 77.3753 21.9708 76.8628C20.692 72.862 17.0391 69.9995 12.7411 69.9995C7.36167 69.9995 3 74.477 3 79.9995Z" fill="#212121"/>
<path d="M8.432 331.712C8.432 332.64 8.77867 333.349 9.472 333.84C10.1653 334.33 11.1147 334.576 12.32 334.576C13.536 334.576 14.48 334.352 15.152 333.904C15.8133 333.445 16.144 332.714 16.144 331.712C16.144 331.242 16.0907 330.778 15.984 330.32C15.8773 329.85 15.728 329.344 15.536 328.8L17.568 328.8C17.7707 329.301 17.92 329.797 18.016 330.288C18.112 330.778 18.16 331.328 18.16 331.936C18.16 333.109 17.92 334.08 17.44 334.848C16.9493 335.605 16.2667 336.165 15.392 336.528C14.5067 336.89 13.4773 337.072 12.304 337.072C11.152 337.072 10.1333 336.864 9.248 336.448C8.36267 336.032 7.66933 335.429 7.168 334.64C6.66667 333.84 6.416 332.864 6.416 331.712C6.416 331.146 6.49067 330.581 6.64 330.016C6.77867 329.44 6.97067 328.89 7.216 328.368L9.184 329.152C8.98133 329.578 8.80533 330.01 8.656 330.448C8.50667 330.874 8.432 331.296 8.432 331.712ZM13.616 318.628C15.0667 318.628 16.1867 319.012 16.976 319.78C17.7653 320.537 18.16 321.572 18.16 322.884C18.16 323.695 17.984 324.42 17.632 325.06C17.28 325.689 16.768 326.185 16.096 326.548C15.4133 326.911 14.5867 327.092 13.616 327.092C12.1653 327.092 11.0507 326.713 10.272 325.956C9.49333 325.199 9.104 324.159 9.104 322.836C9.104 322.015 9.28 321.289 9.632 320.66C9.984 320.031 10.496 319.535 11.168 319.172C11.8293 318.809 12.6453 318.628 13.616 318.628ZM13.616 324.66C14.48 324.66 15.136 324.521 15.584 324.244C16.0213 323.956 16.24 323.492 16.24 322.852C16.24 322.223 16.0213 321.769 15.584 321.492C15.136 321.204 14.48 321.06 13.616 321.06C12.752 321.06 12.1067 321.204 11.68 321.492C11.2427 321.769 11.024 322.228 11.024 322.868C11.024 323.497 11.2427 323.956 11.68 324.244C12.1067 324.521 12.752 324.66 13.616 324.66ZM21.136 307.122L21.136 309.266L18 309.266L18 316.658L9.264 316.658L9.264 314.274L16.208 314.274L16.208 310.786L9.264 310.786L9.264 308.402L16.256 308.402L16.256 307.122L21.136 307.122ZM9.264 303.338L12.72 303.338C12.9013 303.338 13.1253 303.349 13.392 303.37C13.6587 303.381 13.9307 303.397 14.208 303.418C14.4853 303.429 14.7307 303.445 14.944 303.466C15.1573 303.487 15.3067 303.503 15.392 303.514L9.264 299.482L9.264 296.618L18 296.618L18 298.922L14.512 298.922C14.224 298.922 13.9093 298.911 13.568 298.89C13.216 298.869 12.8907 298.847 12.592 298.826C12.2827 298.794 12.048 298.773 11.888 298.762L18 302.778L18 305.642L9.264 305.642L9.264 303.338ZM9.088 290.543C9.088 289.369 9.344 288.473 9.856 287.855C10.3573 287.225 11.1307 286.911 12.176 286.911L18 286.911L18 288.575L16.816 289.039L16.816 289.103C17.2853 289.476 17.6267 289.871 17.84 290.287C18.0533 290.703 18.16 291.273 18.16 291.999C18.16 292.777 17.936 293.423 17.488 293.935C17.0293 294.447 16.3307 294.703 15.392 294.703C14.464 294.703 13.7813 294.377 13.344 293.727C12.896 293.076 12.6507 292.1 12.608 290.799L12.56 289.279L12.176 289.279C11.7173 289.279 11.3813 289.401 11.168 289.647C10.9547 289.881 10.848 290.212 10.848 290.639C10.848 291.065 10.912 291.481 11.04 291.887C11.1573 292.292 11.3067 292.697 11.488 293.103L9.872 293.887C9.62666 293.417 9.43466 292.9 9.296 292.335C9.15733 291.759 9.088 291.161 9.088 290.543ZM13.952 289.279L13.984 290.207C14.0053 290.975 14.144 291.508 14.4 291.807C14.656 292.105 14.992 292.255 15.408 292.255C15.7707 292.255 16.032 292.148 16.192 291.935C16.3413 291.721 16.416 291.444 16.416 291.103C16.416 290.591 16.2667 290.159 15.968 289.807C15.6587 289.455 15.2267 289.279 14.672 289.279L13.952 289.279ZM18 276.646L18 279.03L11.056 279.03L11.056 281.222C12.7627 281.361 14.1387 281.548 15.184 281.782C16.2187 282.006 16.976 282.321 17.456 282.726C17.9253 283.132 18.16 283.676 18.16 284.358C18.16 284.913 18.0747 285.366 17.904 285.718L16 285.718C16.1067 285.473 16.16 285.217 16.16 284.95C16.16 284.758 16.064 284.582 15.872 284.422C15.68 284.262 15.3333 284.113 14.832 283.974C14.3307 283.825 13.632 283.692 12.736 283.574C11.8293 283.457 10.672 283.35 9.264 283.254L9.264 276.646L18 276.646ZM12.64 271.774L12.64 270.094C12.64 268.75 12.8533 267.758 13.28 267.118C13.7067 266.467 14.352 266.142 15.216 266.142C16.0587 266.142 16.736 266.44 17.248 267.038C17.7493 267.635 18 268.622 18 269.998L18 274.158L9.264 274.158L9.264 271.774L12.64 271.774ZM15.248 268.526C14.608 268.526 14.288 269.064 14.288 270.142L14.288 271.774L16.352 271.774L16.352 270.11C16.352 269.64 16.2667 269.262 16.096 268.974C15.9253 268.675 15.6427 268.526 15.248 268.526ZM9.264 261.946L12.624 261.946L12.624 258.618L9.264 258.618L9.264 256.234L18 256.234L18 258.618L14.4 258.618L14.4 261.946L18 261.946L18 264.33L9.264 264.33L9.264 261.946ZM18 253.736L9.264 253.736L9.264 251.352L12.64 251.352L12.64 250.2C12.64 248.867 12.8533 247.88 13.28 247.24C13.7067 246.6 14.352 246.28 15.216 246.28C16.0587 246.28 16.736 246.579 17.248 247.176C17.7493 247.773 18 248.755 18 250.12L18 253.736ZM18 245.016L9.264 245.016L9.264 242.632L18 242.632L18 245.016ZM16.352 251.352L16.352 250.248C16.352 249.779 16.2667 249.4 16.096 249.112C15.9253 248.813 15.6427 248.664 15.248 248.664C14.608 248.664 14.288 249.203 14.288 250.28L14.288 251.352L16.352 251.352ZM9.10399 236.542C9.10399 235.337 9.45066 234.382 10.144 233.678C10.8267 232.974 11.8027 232.622 13.072 232.622L14.224 232.622L14.224 238.254C14.896 238.233 15.424 238.035 15.808 237.662C16.192 237.278 16.384 236.75 16.384 236.078C16.384 235.513 16.3307 235.001 16.224 234.542C16.1067 234.083 15.9307 233.609 15.696 233.118L17.536 233.118C17.7493 233.545 17.904 233.998 18 234.478C18.1067 234.947 18.16 235.518 18.16 236.19C18.16 237.065 18 237.838 17.68 238.51C17.3493 239.182 16.8533 239.71 16.192 240.094C15.5307 240.478 14.6987 240.67 13.696 240.67C12.672 240.67 11.824 240.499 11.152 240.158C10.4693 239.806 9.95733 239.321 9.61599 238.702C9.27466 238.083 9.10399 237.363 9.10399 236.542ZM10.8 236.526C10.8 236.985 10.9493 237.369 11.248 237.678C11.5467 237.977 12.0107 238.153 12.64 238.206L12.64 234.862C12.1067 234.873 11.6693 235.011 11.328 235.278C10.976 235.545 10.8 235.961 10.8 236.526ZM18.16 223.746C18.16 225.048 17.8027 226.056 17.088 226.77C16.3627 227.474 15.2267 227.826 13.68 227.826C12.6133 227.826 11.744 227.645 11.072 227.282C10.4 226.92 9.90399 226.418 9.58399 225.778C9.26399 225.128 9.10399 224.381 9.10399 223.538C9.10399 222.941 9.16266 222.424 9.27999 221.986C9.39733 221.538 9.53599 221.149 9.69599 220.818L11.536 221.522C11.3867 221.896 11.264 222.248 11.168 222.578C11.072 222.898 11.024 223.218 11.024 223.538C11.024 224.776 11.904 225.394 13.664 225.394C14.5387 225.394 15.184 225.234 15.6 224.914C16.016 224.584 16.224 224.125 16.224 223.538C16.224 223.037 16.16 222.594 16.032 222.21C15.8933 221.826 15.7067 221.453 15.472 221.09L17.504 221.09C17.7387 221.453 17.904 221.837 18 222.242C18.1067 222.637 18.16 223.138 18.16 223.746ZM9.10399 215.48C9.10399 214.274 9.45066 213.32 10.144 212.616C10.8267 211.912 11.8027 211.56 13.072 211.56L14.224 211.56L14.224 217.192C14.896 217.17 15.424 216.973 15.808 216.6C16.192 216.216 16.384 215.688 16.384 215.016C16.384 214.45 16.3307 213.938 16.224 213.48C16.1067 213.021 15.9307 212.546 15.696 212.056L17.536 212.056C17.7493 212.482 17.904 212.936 18 213.416C18.1067 213.885 18.16 214.456 18.16 215.128C18.16 216.002 18 216.776 17.68 217.448C17.3493 218.12 16.8533 218.648 16.192 219.032C15.5307 219.416 14.6987 219.608 13.696 219.608C12.672 219.608 11.824 219.437 11.152 219.096C10.4693 218.744 9.95733 218.258 9.61599 217.64C9.27466 217.021 9.10399 216.301 9.10399 215.48ZM10.8 215.464C10.8 215.922 10.9493 216.306 11.248 216.616C11.5467 216.914 12.0107 217.09 12.64 217.144L12.64 213.8C12.1067 213.81 11.6693 213.949 11.328 214.216C10.976 214.482 10.8 214.898 10.8 215.464ZM11.056 202.395L11.056 205.259L18 205.259L18 207.643L11.056 207.643L11.056 210.507L9.26399 210.507L9.26399 202.395L11.056 202.395ZM9.26399 198.479L12.72 198.479C12.9013 198.479 13.1253 198.489 13.392 198.511C13.6587 198.521 13.9307 198.537 14.208 198.559C14.4853 198.569 14.7307 198.585 14.944 198.607C15.1573 198.628 15.3067 198.644 15.392 198.655L9.26399 194.623L9.26399 191.759L18 191.759L18 194.063L14.512 194.063C14.224 194.063 13.9093 194.052 13.568 194.031C13.216 194.009 12.8907 193.988 12.592 193.967C12.2827 193.935 12.048 193.913 11.888 193.903L18 197.919L18 200.783L9.26399 200.783L9.26399 198.479Z" fill="black"/>
<line x1="13" y1="175" x2="13" y2="105" stroke="black" stroke-width="2"/>
<path d="M3 41.25L3 48.75C3 52.2012 5.79875 55 9.25 55L16.75 55C20.2013 55 23 52.2012 23 48.75L23 41.25C23 37.7987 20.2012 35 16.75 35L9.25 35C5.79875 35 3 37.7987 3 41.25ZM16.75 36.875C19.1625 36.875 21.125 38.8375 21.125 41.25L21.125 48.75C21.125 51.1625 19.1625 53.125 16.75 53.125L9.25 53.125C6.8375 53.125 4.875 51.1625 4.875 48.75L4.875 41.25C4.875 38.8375 6.8375 36.875 9.25 36.875L16.75 36.875Z" fill="black"/>
<path d="M8 45C8 47.7612 10.2387 50 13 50C15.7613 50 18 47.7612 18 45C18 42.2387 15.7612 40 13 40C10.2387 40 8 42.2387 8 45ZM16.125 45C16.125 46.7225 14.7225 48.125 13 48.125C11.2763 48.125 9.875 46.7225 9.875 45C9.875 43.2775 11.2762 41.875 13 41.875C14.7225 41.875 16.125 43.2775 16.125 45Z" fill="black"/>
<path d="M8.29123 39.625C8.29123 39.257 7.99295 38.9588 7.62499 38.9588C7.25703 38.9588 6.95874 39.257 6.95874 39.625C6.95874 39.993 7.25703 40.2913 7.62499 40.2913C7.99295 40.2913 8.29123 39.993 8.29123 39.625Z" fill="black"/>
<path d="M3 2.92969L3 17.0703C3 18.6856 4.31439 20 5.92969 20L20.0703 20C21.6856 20 23 18.6856 23 17.0703L23 11.1719L15.9297 11.1719L15.9297 13.5156L12.4141 13.5156L12.4141 11.1719L10.0312 11.1719C8.09262 11.1719 6.51562 9.59488 6.51562 7.65625L6.51562 4.10156L10.0312 4.10156L10.0312 7.65625L12.4141 7.65625L12.4141 4.10156L15.9297 4.6875L15.9297 7.65625L23 7.65625L23 2.92969C23 1.31439 21.6856 -8.16774e-07 20.0703 -7.46167e-07L5.92969 -1.28061e-07C4.31439 -5.74539e-08 3 1.31439 3 2.92969Z" fill="black"/>
</svg>
