<svg width="82" height="40" viewBox="0 0 82 40" fill="none" xmlns="http://www.w3.org/2000/svg">
<circle cx="60" cy="18" r="18" fill="#FFA501"/>
<line x1="42" y1="18.5" y2="18.5" stroke="black"/>
<path d="M59.9297 30.954L58.0651 30.5426C57.5186 31.6452 57 32.8837 57 34.3105C57 35.7101 57.4976 36.9336 58.0651 38.0785L64.373 36.687V39.4312L66.5703 38.3325L68.7676 39.4312V36.6884L75.0263 38.0792C75.5686 36.9853 76.0918 35.7435 76.0918 34.3105C76.0918 34.0636 76.0735 33.8177 76.0428 33.5781H82V16H59.9297V30.954ZM58.9009 36.394C58.7104 35.8902 58.4648 35.0898 58.4648 34.3105C58.4648 33.5312 58.7104 32.7307 58.9009 32.227L64.373 33.4342V35.1869L58.9009 36.394ZM67.3027 37.061L66.5703 36.6948L65.8379 37.061V33.5781H67.3027V37.061ZM74.1913 36.3931L68.7676 35.1878V33.4332L74.1913 32.2279C74.3817 32.7318 74.627 33.5317 74.627 34.3105C74.627 35.0895 74.3817 35.8895 74.1913 36.3931ZM80.5352 17.4648V32.1133H75.7038C75.4637 31.3788 75.2701 31.0319 75.0263 30.5418L67.9548 32.1133H65.1854L61.3945 31.277V17.4648H80.5352Z" fill="black"/>
<path d="M65.8379 18.9297H76.0918V20.3945H65.8379V18.9297Z" fill="black"/>
<path d="M62.8594 24.7891H79.0703V26.2539H62.8594V24.7891Z" fill="black"/>
<path d="M65.8379 27.7188H76.0918V29.1836H65.8379V27.7188Z" fill="black"/>
<path d="M67.3027 21.8594H68.7676V23.3242H67.3027V21.8594Z" fill="black"/>
<path d="M70.2324 21.8594H71.6973V23.3242H70.2324V21.8594Z" fill="black"/>
<path d="M73.1621 21.8594H74.627V23.3242H73.1621V21.8594Z" fill="black"/>
</svg>
