<svg width="80" height="39" viewBox="0 0 80 39" fill="none" xmlns="http://www.w3.org/2000/svg">
<circle cx="60" cy="18" r="18" fill="#FFA501"/>
<line x1="42" y1="18.5" y2="18.5" stroke="black"/>
<path d="M76.7169 30.333L75.2497 29.9022L72.0575 27.8172V27.3394C72.9817 26.6423 73.6164 25.5767 73.7343 24.3553C74.1978 24.2807 74.553 23.8779 74.553 23.3937V22.08C74.553 22.0749 74.5524 22.0699 74.5522 22.0649V20.4007C74.7369 20.2685 74.854 20.0531 74.854 19.8115V18.2885L77.057 17.9133C77.4191 17.8516 77.6794 17.5641 77.705 17.1977C77.7305 16.8314 77.5126 16.5105 77.1626 16.3992L69.736 14.037C69.5811 13.9877 69.4174 13.9877 69.2625 14.0369L61.8358 16.3992C61.4858 16.5105 61.2679 16.8314 61.2934 17.1977C61.3096 17.4304 61.4208 17.6311 61.5925 17.7626V19.7541H61.5744C61.1561 19.7541 60.8159 20.0943 60.8159 20.5126V21.5011L60.3263 24.3748C60.2417 24.8718 60.6245 25.3267 61.1299 25.3267H62.7875C63.2918 25.3267 63.6759 24.8729 63.5911 24.3747L63.1015 21.5011V20.5126C63.1015 20.0943 62.7613 19.7541 62.3431 19.7541H62.3249V17.9786L64.1459 18.2887V19.8115C64.1459 20.0521 64.2626 20.2671 64.4464 20.3995L64.4471 22.0801V23.3937C64.4471 23.8779 64.8022 24.2807 65.2657 24.3553C65.3836 25.576 66.0176 26.6411 66.941 27.3383V27.8183L63.7495 29.9029L62.2834 30.3332C60.7146 30.7937 59.6069 32.2339 59.6069 33.9082V34.9996C59.6069 35.2018 59.7708 35.3658 59.9731 35.3658C60.1754 35.3658 60.3393 35.2019 60.3393 34.9996V33.9082C60.3393 32.5886 61.2235 31.4075 62.4897 31.0359L63.8557 30.635L69.313 33.8778C69.4238 33.9436 69.5704 33.9471 69.6872 33.8778L75.1448 30.6348L76.5107 31.0358C77.7767 31.4074 78.6609 32.5885 78.6609 33.9079V37.4449C78.6609 37.8986 78.2918 38.2677 77.8381 38.2677H76.224V36.6892C76.224 36.4869 76.0601 36.323 75.8578 36.323C75.6556 36.323 75.4916 36.4869 75.4916 36.6892V38.2677H63.5068V36.6892C63.5068 36.4869 63.3429 36.323 63.1406 36.323C62.9383 36.323 62.7744 36.4869 62.7744 36.6892V38.2677H61.162C60.7083 38.2677 60.3392 37.8986 60.3392 37.4449V36.7114C60.3392 36.5092 60.1753 36.3452 59.973 36.3452C59.7707 36.3452 59.6068 36.5091 59.6068 36.7114V37.4449C59.6068 38.3024 60.3044 39 61.1619 39H77.838C78.6956 39 79.3932 38.3024 79.3932 37.4449V33.9079C79.3932 32.2731 78.3232 30.8046 76.7169 30.333ZM62.7875 24.5943H61.1299C61.0787 24.5943 61.0396 24.5485 61.0483 24.4977L61.4912 21.8983H62.4262L62.8691 24.4977C62.8777 24.5484 62.839 24.5943 62.7875 24.5943ZM62.3691 20.5126V21.1659H61.5482V20.5126C61.5482 20.4982 61.5599 20.4865 61.5743 20.4865H62.343C62.3574 20.4864 62.3691 20.4982 62.3691 20.5126ZM68.1903 32.2213L68.336 32.4453L64.5973 30.2237L66.9704 28.6737C67.078 29.9364 67.4942 31.1515 68.1903 32.2213ZM68.1877 30.6404C69.0497 30.7629 69.9498 30.763 70.8123 30.6404C70.6456 31.0505 70.4402 31.4462 70.1958 31.8219L69.5 32.8914L68.8041 31.8219C68.5598 31.4462 68.3544 31.0505 68.1877 30.6404ZM70.8097 32.2213C71.5058 31.1515 71.922 29.9364 72.0295 28.6737L74.4026 30.2237L70.664 32.4453L70.8097 32.2213ZM72.9519 20.5371H73.8198V21.7137H73.389C73.1479 21.7137 72.9518 21.5176 72.9518 21.2766V20.5371H72.9519ZM62.0578 17.0971L69.4846 14.7348C69.4941 14.7318 69.5043 14.7318 69.514 14.7349L76.9408 17.0971C76.9561 17.102 76.9771 17.1087 76.9745 17.1468C76.9718 17.1849 76.95 17.1885 76.9341 17.1913L74.4787 17.6095L73.5568 17.4955C73.3562 17.4706 73.1733 17.6133 73.1484 17.814C73.1236 18.0147 73.2663 18.1975 73.4669 18.2223L74.1217 18.3033V19.8047L64.8783 19.8044V18.3033L68.6677 17.8344C69.2197 17.7662 69.7792 17.7662 70.3308 17.8344L71.765 18.0118C71.9657 18.0366 72.1486 17.894 72.1734 17.6933C72.1983 17.4926 72.0557 17.3098 71.855 17.2849L70.4207 17.1075C69.8096 17.0319 69.1894 17.0319 68.5778 17.1075L64.5205 17.6096L62.0643 17.1913C62.0484 17.1885 62.0267 17.1849 62.024 17.1468C62.0213 17.1087 62.0424 17.102 62.0578 17.0971ZM65.1792 21.7137L65.1788 20.5371H66.0481V21.2766C66.0481 21.5176 65.852 21.7138 65.6109 21.7138H65.1792V21.7137ZM65.9852 24.1671C65.9664 23.8689 65.7185 23.6353 65.421 23.6353C65.2878 23.6353 65.1794 23.5269 65.1794 23.3937V22.4462H65.6109C66.2558 22.4462 66.7805 21.9215 66.7805 21.2766V20.5371H72.2194V21.2766C72.2194 21.9215 72.7441 22.4462 73.389 22.4462H73.8206V23.3937C73.8206 23.5269 73.7122 23.6353 73.5789 23.6353C73.2814 23.6353 73.0335 23.8689 73.0147 24.1671C72.898 26.0162 71.3542 27.4647 69.4999 27.4647C67.6457 27.4647 66.1019 26.0162 65.9852 24.1671ZM69.5 28.197C70.1513 28.197 70.7704 28.0481 71.3251 27.7833V28.0154C71.3251 28.6415 71.2406 29.2591 71.078 29.8548C70.0828 30.0446 68.9576 30.0523 67.922 29.8548C67.7594 29.2592 67.6749 28.6416 67.6749 28.0154C67.6749 28.0076 67.6738 28.0001 67.6733 27.9924C67.6732 27.9909 67.6734 27.9894 67.6733 27.9879V27.7826C68.2284 28.0478 68.848 28.197 69.5 28.197Z" fill="black"/>
</svg>
